PathFileType	4	(X/Y/Z)	OpenSim_Sub02_EMGBaseline_Accel.trc
DataRate	CameraRate	NumFrames	NumMarkers	Units	OrigDataRate	OrigDataStartFrame	OrigNumFrames
100	100	30	8	m	100	5046	6727
Frame#	Time	torso_imu_offset_imu	pelvis_imu_offset_imu	tibia_r_imu_offset_imu	femur_r_imu_offset_imu	tibia_l_imu_offset_imu	femur_l_imu_offset_imu	toes_r_imu_offset_imu	toes_l_imu_offset_imu
				X1	Y1	Z1	X2	Y2	Z2	X3	Y3	Z3	X4	Y4	Z4	X5	Y5	Z5	X6	Y6	Z6	X7	Y7	Z7	X8		Y8	Z8	

5046	50.45000000	7.84429658	0.31706863	7.04464221	8.76213805	-1.60297373	1.80223484	5.67354271	8.44041637	4.03975373	6.50909988	-1.94959533	3.23065902	9.66786075	-1.20148132	0.90206118	9.04613109	-0.37375072	-2.34216631	9.46951745	1.43408406	13.27036971	3.92472615	0.59069981	11.87328739
5047	50.46000000	7.87630749	0.28869640	7.10247826	8.78246941	-1.62991036	1.74129325	5.76531680	6.85595592	3.98469713	6.32074002	-1.84529511	3.46024659	9.65897159	-1.63043586	0.64336776	9.05819676	-0.34445952	-2.30282664	10.12576550	1.15500150	13.48110988	3.45066362	0.71019095	11.96099731
5048	50.47000000	7.84434057	0.26506939	7.16007287	8.75475370	-1.61923135	1.71530752	6.57949871	5.15907383	4.07680611	6.26732505	-1.88111122	3.68180300	9.62379613	-1.77888572	0.49241880	9.09078486	-0.48889384	-2.21714612	11.02641032	0.65730295	13.26345312	3.28167625	0.92127177	11.81814738
5049	50.48000000	7.79662474	0.21065580	7.17767062	8.62577081	-1.56044012	1.73450956	7.95713125	2.30377490	4.30447032	6.46262026	-2.07251724	3.86824490	9.64039278	-1.50023500	0.27663030	9.10192828	-0.59302738	-2.22682989	12.11781372	-0.36838967	12.48305799	3.61720300	0.84367546	11.72513106
5050	50.49000000	7.77529762	0.16861492	7.16623929	8.52450718	-1.45127681	1.67316713	9.69451168	-1.43338878	4.16178325	6.94698001	-2.53426619	3.98524440	9.74207488	-1.06793941	0.19307561	9.15626738	-0.85744903	-2.27796745	13.31019891	-1.17494001	11.57810540	3.34118911	0.82788550	11.64403312
5051	50.50000000	7.76070605	0.11635590	7.12390049	8.46359959	-1.32799776	1.60359129	11.24941992	-4.62979503	2.96404018	7.63935681	-3.14032688	3.95049401	9.81487044	-0.63580124	-0.14660401	9.17781695	-0.81565563	-2.46474492	14.74733377	-0.36426253	10.59736390	3.43326956	0.83852227	11.87006347
5052	50.51000000	7.88457118	0.07831422	7.12199125	8.46209258	-1.26513678	1.58025507	12.52842739	-6.16852998	0.67703302	8.22645086	-3.74143418	3.82103356	10.01610772	-0.11648064	-0.55090347	9.12860633	-0.55434621	-2.77080061	15.74367714	2.75022811	9.69292764	3.41421028	0.91876590	11.87741413
5053	50.52000000	8.08024560	0.08267986	7.19138024	8.64144672	-1.32897476	1.63856455	14.04232413	-6.27369456	-0.61908924	9.31371623	-4.91828727	3.66132663	10.20792542	0.23481506	-0.08312401	9.06253236	-0.14441815	-3.01015340	16.43322881	3.99499496	6.54948369	3.25084020	1.05857063	11.73055289
5054	50.53000000	8.20053181	0.06237249	7.25385541	8.89958255	-1.42966404	1.57271909	14.79273347	-5.65342167	1.36852870	9.64955895	-6.47671275	2.84677429	10.13193286	0.75772665	0.22972275	9.01668634	0.46325181	-3.05037928	17.77374674	2.84462394	4.12642062	3.40587643	0.94786609	11.83534095
5055	50.54000000	8.31254341	0.06781882	7.31372764	9.16857382	-1.48509107	1.70175758	14.23146737	-2.42790090	4.95795856	7.61118471	-7.79277186	2.14826910	10.19936252	1.77095884	-0.18529374	8.90467441	1.06835966	-3.07127099	18.36624196	3.24887318	3.79505835	3.69794570	0.72810237	11.85751956
5056	50.55000000	8.45683681	0.07613559	7.44365618	9.41802416	-1.53003320	2.16138235	14.23824855	2.70616088	2.41604007	6.32201034	-9.13182218	2.95922469	10.22816594	2.13345398	-0.12602705	8.70163053	1.50595305	-3.08967514	20.12834391	4.77473761	1.50829175	3.17005675	0.74683555	11.97830858
5057	50.56000000	8.58560762	0.10307055	7.48480328	9.57920004	-1.63134302	2.36533527	12.48646331	4.26771649	-1.60184532	7.14461417	-10.64793981	3.55936103	10.08446086	1.84952949	-0.57938882	8.68776049	1.40707389	-3.02656846	22.98944303	5.19068377	-2.02664034	3.02029117	0.92953280	12.00955514
5058	50.57000000	8.70278271	0.13534619	7.54028483	9.62361467	-1.69599959	2.34527944	8.13019759	1.24353279	0.47120420	7.93505959	-11.17826485	3.06016644	10.14999625	2.04787905	-1.64197515	8.52438852	1.35646363	-3.06846888	22.96694035	6.18761592	-6.22384350	3.48498831	1.00578264	11.98906751
5059	50.58000000	8.86682902	0.13649567	7.64541851	9.53639029	-1.77001776	2.28801133	5.26621532	-2.45410888	1.88945353	8.40455834	-10.25300394	2.91212544	10.31074091	2.03984857	-1.60243457	8.22039255	1.33051409	-3.30864838	21.56603419	9.22145903	-10.02503100	3.45115372	1.15064152	11.91881609
5060	50.59000000	8.96226770	0.14493326	7.69896526	9.38298868	-1.96120351	1.97297836	4.45417649	-3.67934539	0.78393269	8.91284966	-9.24038991	3.49970216	10.23283550	1.60801504	-1.54965083	8.06662514	1.23101115	-3.60099898	18.12656989	9.09301709	-12.62057384	3.38777220	1.39577664	12.09453738
5061	50.60000000	8.82170606	0.15039356	7.58749470	9.34626987	-2.07235682	1.50982399	5.38394771	-2.03422730	-0.03469479	9.19053864	-8.54958878	4.51412505	10.25076095	1.40150390	-1.83995859	7.95322415	1.10591142	-3.73593120	14.39873649	7.07907138	-13.89430025	3.18588385	1.39291016	12.30732138
5062	50.61000000	8.54084156	0.24808115	7.37626281	9.31382297	-2.09095707	1.32183733	7.59498253	0.20989060	-0.13468166	8.88599817	-7.55740021	5.38957662	10.46692231	1.01623963	-1.57633316	7.93158078	0.86952940	-3.61084735	12.51067889	7.67129053	-16.21912528	3.29606602	1.34479372	12.30755448
5063	50.62000000	8.27790169	0.28957935	7.39509068	9.25675886	-2.30209265	1.42352309	9.46311327	1.09086078	0.46934779	8.33789882	-5.79895627	5.66949807	10.70407306	0.62811859	-0.64392501	8.05995298	0.53110299	-3.40370103	2.68184670	11.36664486	1.99903736	3.20269881	1.50655869	12.55789209
5064	50.63000000	8.08593479	0.25893294	7.14958985	9.44141920	-2.59750947	2.15579795	10.10445039	1.33799492	0.08743112	8.64507679	-4.13719423	5.63876709	10.82335808	0.17291439	0.65956981	8.35298169	0.25125179	-3.31897555	-4.26254279	2.89943140	28.62095479	3.01898113	1.62352762	12.97195180
5065	50.64000000	8.56108876	0.28689675	7.03562693	10.19404971	-2.21075909	3.30804123	12.02087831	0.70122842	-0.20848588	11.09618927	-3.42821843	4.99367883	11.01591775	-0.38048253	1.46113652	8.90540026	0.28922974	-3.31643390	-1.36414431	-20.25719168	12.40285973	2.34598317	0.75695994	13.63574996
5066	50.65000000	10.11696530	0.23058755	7.66048420	11.36806683	-0.59492667	4.73655802	19.05627523	-2.60554397	3.45036340	14.76956400	-3.26516204	3.16630298	11.95472165	-0.73043614	2.16833361	9.49971789	0.44725525	-2.93890735	22.49187123	-18.32768690	10.63367084	1.13635456	0.21079124	14.53893687
5067	50.66000000	11.96591092	-0.04728671	8.26945079	13.14904820	1.89810100	6.77925182	28.25703138	-8.80478852	7.85653790	18.31347134	-3.16804716	1.53843550	13.52561688	-1.20057042	2.89349392	10.36742818	0.48466874	-2.42711597	44.62082320	3.66145236	24.31616176	1.38217048	0.84778347	15.15059767
5068	50.67000000	13.26759766	-0.51667472	8.79897627	15.75166073	4.66642191	7.06463194	26.95947000	-11.22868856	3.06804312	20.31629276	-2.91443608	-0.59633749	16.06553669	-1.64982245	2.40755420	11.17916301	0.16182439	-2.17832692	18.19111899	23.61546163	12.10918411	2.53796115	0.43624437	15.47517432
5069	50.68000000	13.61031832	-0.86539168	9.19335465	16.13921924	6.79182348	5.30959417	15.17642863	-4.25389313	2.44024488	18.22589262	0.13303635	-2.32167892	19.57834435	-1.25117866	1.12628616	11.78141779	-0.32450969	-1.59729012	-1.33366733	22.31308269	8.90479256	2.06811853	2.32079242	16.40610693
5070	50.69000000	12.48275893	-0.98547270	9.05641990	12.46421481	4.12455828	4.83469151	5.87250613	6.13470641	7.21087110	11.81829953	4.81835754	-0.47500832	21.91006214	0.95418945	0.25681018	13.64873794	-0.88466838	-1.01268109	5.16952196	-2.85446796	8.01110616	0.47354085	3.53022458	17.31348371
5071	50.70000000	10.70330285	-1.04831991	8.73299926	9.57271128	-1.90258034	5.11405678	1.10644914	14.39104570	2.94497310	6.70017967	5.25082500	1.93589769	21.38003220	2.54607109	-0.24263413	14.91227457	-1.35249252	-0.96094876	5.01357025	-6.13048205	7.25717906	0.22294981	0.01631703	17.29110809
5072	50.71000000	10.14941706	-1.01282828	8.58547996	9.05218333	-5.48295291	5.26182288	-0.19983116	16.77939566	-1.68578711	6.09064556	2.60226236	0.91946567	19.68283544	1.63376732	-0.30989592	13.36945191	-1.33432740	-1.29444800	4.46807155	3.77728903	10.73809223	0.30572577	2.03396307	16.93969792
5073	50.72000000	10.61377104	-0.96393548	8.36556180	9.42563116	-6.62245639	5.38846544	0.81032713	12.67039781	-2.09846339	5.90044033	0.47795457	-0.56432898	18.69229778	0.00565839	0.07775055	11.56287266	-1.03335612	-1.41708773	4.72996781	-0.89265956	9.69991353	0.15634398	4.89812519	15.23253312
5074	50.73000000	10.54391989	-1.19385630	7.94251998	10.02052365	-6.33386617	5.52214562	1.31858352	10.01335987	-2.69707595	4.65050574	-1.22591387	-0.04191814	17.34886056	-1.95814612	0.88240059	11.35193758	-0.62384300	-0.60234683	5.15917995	-1.09344466	8.52335453	4.10875669	6.52055879	15.45981322
5075	50.74000000	9.55589315	-1.51291833	7.26274855	9.55227350	-4.90989794	5.99041857	3.49154516	9.92297332	-3.34307581	4.28916707	-2.66665197	-0.84692085	14.48197159	-3.82066617	1.63129008	12.21751201	-0.11523675	0.50600891	5.73766252	2.11793046	9.17481221	7.53777723	8.69883675	15.84686087
